<svg width="24" height="24" viewBox="0 0 24 24" fill="none" xmlns="http://www.w3.org/2000/svg">
<path d="M12 4.5C8.27208 4.5 5.25 7.52208 5.25 11.25C5.25 14.9779 8.27208 18 12 18C15.7279 18 18.75 14.9779 18.75 11.25C18.75 10.8358 19.0858 10.5 19.5 10.5C19.9142 10.5 20.25 10.8358 20.25 11.25C20.25 15.8063 16.5563 19.5 12 19.5C7.44365 19.5 3.75 15.8063 3.75 11.25C3.75 6.69365 7.44365 3 12 3C12.4142 3 12.75 3.33579 12.75 3.75V6.69907C12.75 7.02327 13.1245 7.2061 13.3777 7.00253L16.9203 4.1594C17.1417 3.98258 17.1417 3.64727 16.9203 3.47045L13.3777 0.627323C13.1245 0.423753 12.75 0.606578 12.75 0.930782V3.75C12.75 4.16421 12.4142 4.5 12 4.5Z" fill="currentColor"/>
</svg>
