<svg width="24" height="24" viewBox="0 0 24 24" fill="none" xmlns="http://www.w3.org/2000/svg">
<path d="M7 2C5.89543 2 5 2.89543 5 4V20C5 21.1046 5.89543 22 7 22H17C18.1046 22 19 21.1046 19 20V9.82777C19 9.29733 18.7893 8.78863 18.4142 8.41355L13.5864 3.58579C13.2114 3.21071 12.7027 3 12.1722 3H7ZM7 4.5H12V9C12 9.82843 12.6716 10.5 13.5 10.5H17.5V20C17.5 20.2761 17.2761 20.5 17 20.5H7C6.72386 20.5 6.5 20.2761 6.5 20V4C6.5 3.72386 6.72386 3.5 7 3.5ZM16.8793 9H13.5C13.2239 9 13 8.77614 13 8.5V5.12066L16.8793 9ZM8 12.5C8 12.2239 8.22386 12 8.5 12H15.5C15.7761 12 16 12.2239 16 12.5C16 12.7761 15.7761 13 15.5 13H8.5C8.22386 13 8 12.7761 8 12.5ZM8 15.5C8 15.2239 8.22386 15 8.5 15H15.5C15.7761 15 16 15.2239 16 15.5C16 15.7761 15.7761 16 15.5 16H8.5C8.22386 16 8 15.7761 8 15.5ZM8 18.5C8 18.2239 8.22386 18 8.5 18H12.5C12.7761 18 13 18.2239 13 18.5C13 18.7761 12.7761 19 12.5 19H8.5C8.22386 19 8 18.7761 8 18.5Z" fill="currentColor"/>
</svg>
